# xmcd CD database file
#
# Track frame offsets:
#	150
#	10986
#	27219
#	43982
#	60969
#	74755
#	92087
#	106967
#	120335
#	138465
#	158251
#	172373
#	187732
#	207614
#	223234
#	235549
#	251455
#	267889
#
# Disc length: 3740 seconds
#
# Revision: 0
# Processed by: cddbd v1.5.2PL0 Copyright (c) Steve Scherf et al.
# Submitted via: CDex 1.70beta2
#
DISCID=fc0e9a12
DTITLE=Ken Mullan - Up Close and Personal
DYEAR=2005
DGENRE=Country
TTITLE0=Medals for Mothers
TTITLE1=How great thou art
TTITLE2=Maggie
TTITLE3=No more Boleros
TTITLE4=Jesus died for me
TTITLE5=My son
TTITLE6=Leaves in the wind
TTITLE7=I'd rather have Jesus
TTITLE8=Jesse
TTITLE9=Only yesterday
TTITLE10=What a friend we have in Jesus
TTITLE11=A single yellow rose
TTITLE12=My heart will go on
TTITLE13=Careless hands
TTITLE14=I fall to pieces
TTITLE15=Daisy a day
TTITLE16=Rose of my heart
TTITLE17=Love songs of the waterfall
EXTD=YEAR: 2005
EXTT0=
EXTT1=
EXTT2=
EXTT3=
EXTT4=
EXTT5=
EXTT6=
EXTT7=
EXTT8=
EXTT9=
EXTT10=
EXTT11=
EXTT12=
EXTT13=
EXTT14=
EXTT15=
EXTT16=
EXTT17=
PLAYORDER=
